<?xml version="1.0" encoding="UTF-8" standalone="no"?>
<!-- Created with Inkscape (http://www.inkscape.org/) -->

<svg
   xmlns:dc="http://purl.org/dc/elements/1.1/"
   xmlns:cc="http://creativecommons.org/ns#"
   xmlns:rdf="http://www.w3.org/1999/02/22-rdf-syntax-ns#"
   xmlns:svg="http://www.w3.org/2000/svg"
   xmlns="http://www.w3.org/2000/svg"
   xmlns:xlink="http://www.w3.org/1999/xlink"
   xmlns:sodipodi="http://sodipodi.sourceforge.net/DTD/sodipodi-0.dtd"
   xmlns:inkscape="http://www.inkscape.org/namespaces/inkscape"
   inkscape:export-ydpi="50"
   inkscape:export-xdpi="50"
   inkscape:export-filename="G:\My Drive\grafika\bracha_python\scurvysin12.png"
   sodipodi:docname="scurvysin12.svg"
   inkscape:version="0.92.4 (5da689c313, 2019-01-14)"
   id="svg8"
   version="1.1"
   viewBox="0 0 975.00213 872.43225"
   height="872.43225mm"
   width="975.00214mm">
  <defs
     id="defs2">
    <linearGradient
       inkscape:collect="always"
       id="linearGradient11301">
      <stop
         style="stop-color:#ffe052;stop-opacity:1"
         offset="0"
         id="stop11303" />
      <stop
         style="stop-color:#ffc331;stop-opacity:1"
         offset="1"
         id="stop11305" />
    </linearGradient>
    <linearGradient
       inkscape:collect="always"
       id="linearGradient9515">
      <stop
         style="stop-color:#387eb8;stop-opacity:1"
         offset="0"
         id="stop9517" />
      <stop
         style="stop-color:#366994;stop-opacity:1"
         offset="1"
         id="stop9519" />
    </linearGradient>
    <linearGradient
       inkscape:collect="always"
       xlink:href="#linearGradient9515"
       id="linearGradient9521"
       x1="55.549179"
       y1="77.070274"
       x2="110.14919"
       y2="131.85291"
       gradientUnits="userSpaceOnUse"
       gradientTransform="matrix(31.740138,0,0,31.740138,-370.88466,-1524.4911)" />
    <linearGradient
       inkscape:collect="always"
       xlink:href="#linearGradient11301"
       id="linearGradient1418"
       gradientUnits="userSpaceOnUse"
       gradientTransform="matrix(-31.740138,0,0,31.740138,4055.9316,-1524.4911)"
       x1="55.549179"
       y1="77.070274"
       x2="110.14919"
       y2="131.85291" />
    <linearGradient
       inkscape:collect="always"
       xlink:href="#linearGradient11301"
       id="linearGradient1431"
       x1="-846.56549"
       y1="-414.28061"
       x2="-806.53967"
       y2="-414.28061"
       gradientUnits="userSpaceOnUse"
       gradientTransform="matrix(-1,0,0,1,-1644.0512,-52.916669)" />
    <linearGradient
       inkscape:collect="always"
       xlink:href="#linearGradient11301"
       id="linearGradient1433"
       x1="-928.58636"
       y1="-414.28061"
       x2="-888.56055"
       y2="-414.28061"
       gradientUnits="userSpaceOnUse"
       gradientTransform="translate(-21.166667,-52.916669)" />
  </defs>
  <sodipodi:namedview
     id="base"
     pagecolor="#ffffff"
     bordercolor="#666666"
     borderopacity="1.0"
     inkscape:pageopacity="0.0"
     inkscape:pageshadow="2"
     inkscape:zoom="0.12374369"
     inkscape:cx="-1632.5859"
     inkscape:cy="2027.3987"
     inkscape:document-units="mm"
     inkscape:current-layer="g2197"
     showgrid="false"
     fit-margin-top="20"
     fit-margin-left="20"
     fit-margin-right="20"
     fit-margin-bottom="20"
     inkscape:window-width="1920"
     inkscape:window-height="1017"
     inkscape:window-x="-8"
     inkscape:window-y="-8"
     inkscape:window-maximized="1"
     showguides="false" />
  <metadata
     id="metadata5">
    <rdf:RDF>
      <cc:Work
         rdf:about="">
        <dc:format>image/svg+xml</dc:format>
        <dc:type
           rdf:resource="http://purl.org/dc/dcmitype/StillImage" />
        <dc:title></dc:title>
      </cc:Work>
    </rdf:RDF>
  </metadata>
  <g
     inkscape:label="Layer 1"
     inkscape:groupmode="layer"
     id="layer1"
     transform="translate(2574.5861,827.39627)">
    <path
       style="fill:none;stroke:#000000;stroke-width:0.26458332px;stroke-linecap:butt;stroke-linejoin:miter;stroke-opacity:1"
       d="m -466.67625,-214.62863 v 17.00893"
       id="path1048"
       inkscape:connector-curvature="0" />
    <g
       id="g2197"
       transform="translate(-1079.5,-223.7619)"
       inkscape:export-filename="C:\Users\pavel\scurvysin7.png"
       inkscape:export-xdpi="20.006784"
       inkscape:export-ydpi="20.006784">
      <path
         style="opacity:1;fill:#ffffff;fill-opacity:1;stroke:none;stroke-width:5;stroke-miterlimit:4;stroke-dasharray:none;stroke-dashoffset:0;stroke-opacity:1"
         d="m -1495.0861,-603.63423 975.00214,-1.4e-4 v 872.43228 l -975.00214,1.4e-4 z"
         id="rect838"
         inkscape:connector-curvature="0"
         sodipodi:nodetypes="ccccc" />
      <path
         style="color:#000000;display:inline;overflow:visible;visibility:visible;opacity:1;fill:url(#linearGradient9521);fill-opacity:1;fill-rule:nonzero;stroke:none;stroke-width:31.7401371;stroke-linecap:butt;stroke-linejoin:miter;stroke-miterlimit:4;stroke-dasharray:none;stroke-dashoffset:0;stroke-opacity:1;marker:none;marker-start:none;marker-mid:none;marker-end:none"
         d="m 2714.8594,75.597656 c -637.3597,-1.544193 -754.2068,237.818204 -752.8438,786.947264 37.3666,13.93312 73.7762,26.17377 109.2949,36.83789 v -69.4082 l 98.8965,20 v 75.56445 c 145.9886,33.14657 275.8058,37.68329 392.5313,19.05664 v -83.19336 l 98.8984,-20 v 81.10157 c 52.5068,-15.21423 102.2068,-35.39319 149.4278,-59.95899 151.8358,268.68038 -245.3212,187.37198 -429.4278,162.94528 v 67.6231 h -98.8984 v -78.0469 c -170.2822,-13.9494 -319.2149,-72.27734 -319.2149,-72.27734 97.1188,343.98994 569.3458,253.91244 847.5411,214.31444 -312.3396,299.2324 -751.417,371.9636 -1112.5508,491.2754 92.0971,15.7434 183.6415,29.5333 272.0605,45.5938 180.341,32.7572 348.1779,75.1304 478.0274,172.9863 107.1013,80.7127 183.9083,200.2514 214.8222,370.6406 C 4002.6859,1819.3967 3802.4741,95.670184 2795.1934,76.976562 c -27.6562,-0.854317 -54.4251,-1.316134 -80.334,-1.378906 z"
         transform="matrix(0.26458333,0,0,0.26458333,-1495.0861,-603.63437)"
         id="path5867" />
      <g
         id="g2225"
         transform="rotate(-15,-918.39215,-467.19735)">
        <path
           sodipodi:nodetypes="sssss"
           inkscape:connector-curvature="0"
           style="color:#000000;display:inline;overflow:visible;visibility:visible;opacity:1;fill:#ffffff;fill-opacity:1;fill-rule:nonzero;stroke:none;stroke-width:8.39791107;stroke-linecap:butt;stroke-linejoin:miter;stroke-miterlimit:4;stroke-dasharray:none;stroke-dashoffset:0;stroke-opacity:1;marker:none;marker-start:none;marker-mid:none;marker-end:none"
           d="m -913.10054,-507.61227 c -22.3504,-2e-5 -40.4149,18.0645 -40.4149,40.41495 0,22.35045 18.0645,40.41495 40.4149,40.41495 22.3505,1e-5 29.83167,-18.0645 29.83167,-40.41495 0,-22.35045 -7.48117,-40.41495 -29.83167,-40.41495 z"
           id="path1080" />
        <path
           id="path1336"
           d="m -926.72501,-490.22536 c -12.73504,-2e-5 -23.02802,10.29297 -23.02802,23.02804 0,12.73507 10.29298,23.02805 23.02802,23.02805 12.73509,0 16.99779,-10.29298 16.99779,-23.02805 0,-12.73507 -4.2627,-23.02804 -16.99779,-23.02804 z"
           style="color:#000000;display:inline;overflow:visible;visibility:visible;opacity:1;fill:url(#linearGradient1433);fill-opacity:1;fill-rule:nonzero;stroke:none;stroke-width:4.78504801;stroke-linecap:butt;stroke-linejoin:miter;stroke-miterlimit:4;stroke-dasharray:none;stroke-dashoffset:0;stroke-opacity:1;marker:none;marker-start:none;marker-mid:none;marker-end:none"
           inkscape:connector-curvature="0"
           sodipodi:nodetypes="sssss" />
      </g>
      <g
         id="g2229"
         transform="rotate(-15,-806.15053,-467.19735)">
        <path
           id="path1082"
           d="m -800.85891,-507.61227 c -22.3504,-2e-5 -40.4149,18.0645 -40.4149,40.41495 0,22.35045 18.0645,40.41495 40.4149,40.41495 22.3505,1e-5 29.83167,-18.0645 29.83167,-40.41495 0,-22.35045 -7.48117,-40.41495 -29.83167,-40.41495 z"
           style="color:#000000;display:inline;overflow:visible;visibility:visible;opacity:1;fill:#ffffff;fill-opacity:1;fill-rule:nonzero;stroke:none;stroke-width:8.39791107;stroke-linecap:butt;stroke-linejoin:miter;stroke-miterlimit:4;stroke-dasharray:none;stroke-dashoffset:0;stroke-opacity:1;marker:none;marker-start:none;marker-mid:none;marker-end:none"
           inkscape:connector-curvature="0"
           sodipodi:nodetypes="sssss" />
        <path
           sodipodi:nodetypes="sssss"
           inkscape:connector-curvature="0"
           style="color:#000000;display:inline;overflow:visible;visibility:visible;opacity:1;fill:url(#linearGradient1431);fill-opacity:1;fill-rule:nonzero;stroke:none;stroke-width:4.78504801;stroke-linecap:butt;stroke-linejoin:miter;stroke-miterlimit:4;stroke-dasharray:none;stroke-dashoffset:0;stroke-opacity:1;marker:none;marker-start:none;marker-mid:none;marker-end:none"
           d="m -814.48338,-490.22536 c -12.73504,-2e-5 -23.02802,10.29297 -23.02802,23.02804 0,12.73507 10.29298,23.02805 23.02802,23.02805 12.73509,0 16.99779,-10.29298 16.99779,-23.02805 0,-12.73507 -4.2627,-23.02804 -16.99779,-23.02804 z"
           id="path1338" />
      </g>
      <path
         style="color:#000000;display:inline;overflow:visible;visibility:visible;opacity:1;fill:url(#linearGradient1418);fill-opacity:1;fill-rule:nonzero;stroke:none;stroke-width:31.7401371;stroke-linecap:butt;stroke-linejoin:miter;stroke-miterlimit:4;stroke-dasharray:none;stroke-dashoffset:0;stroke-opacity:1;marker:none;marker-start:none;marker-mid:none;marker-end:none"
         d="m 970.1875,275.59766 c -25.90893,0.0628 -52.67778,0.52458 -80.33398,1.3789 C 70.957264,292.17404 -217.89622,1348.7341 424.48438,1936.5801 c 622.80372,572.0076 1537.02112,300.3287 2182.15432,594.7715 14.9372,-54.1803 22.9707,-112.6043 22.9707,-175.6094 -49.7549,-894.4042 -1144.9547,-413.593 -1755.62698,-998.6387 282.98308,85.1163 728.27768,268.0732 847.54098,-118.3144 0,0 -148.9323,58.3279 -319.2148,72.2773 v 78.0469 h -98.8984 v -75.6231 c -3.0909,-0.1197 -6.1813,-0.2554 -9.2696,-0.416 -96.5499,-6.3369 -432.23263,-29.029 -420.15818,-250.5293 47.22066,24.5658 96.92103,44.7448 149.42778,59.959 v -81.1016 l 98.8984,20 v 83.1934 c 116.7254,18.6266 246.5428,14.0899 392.5312,-19.0566 v -75.5645 l 98.8965,-20 v 69.4082 c 35.5189,-10.6641 71.9283,-22.9048 109.2949,-36.8379 1.3631,-549.12893 -115.484,-788.49146 -752.8437,-786.94724 z m 118.6934,2289.76754 c -239.34668,126.1219 -475.5807,324.5192 -386.63285,656.2871 h 296.57226 c 0,0 426.78819,8.3097 843.69919,-103.7441 -328.6775,-88.3403 -651.2044,-251.4891 -753.6386,-552.543 z"
         transform="matrix(0.26458333,0,0,0.26458333,-1495.0861,-603.63437)"
         id="path1366"
         inkscape:connector-curvature="0"
         sodipodi:nodetypes="scccccccccccccccccccccsccccc" />
      <g
         id="g2245"
         transform="rotate(-15,-1096.7781,-414.28065)">
        <path
           id="path1368"
           d="m -1102.0697,-454.69557 c 22.3504,-2e-5 40.4149,18.0645 40.4149,40.41495 0,22.35045 -18.0645,40.41495 -40.4149,40.41495 -22.3505,1e-5 -29.8317,-18.0645 -29.8317,-40.41495 0,-22.35045 7.4812,-40.41495 29.8317,-40.41495 z"
           style="color:#000000;display:inline;overflow:visible;visibility:visible;opacity:1;fill:#ffffff;fill-opacity:1;fill-rule:nonzero;stroke:none;stroke-width:8.39791107;stroke-linecap:butt;stroke-linejoin:miter;stroke-miterlimit:4;stroke-dasharray:none;stroke-dashoffset:0;stroke-opacity:1;marker:none;marker-start:none;marker-mid:none;marker-end:none"
           inkscape:connector-curvature="0"
           sodipodi:nodetypes="sssss" />
        <path
           sodipodi:nodetypes="sssss"
           inkscape:connector-curvature="0"
           style="color:#000000;display:inline;overflow:visible;visibility:visible;opacity:1;fill:#3776aa;fill-opacity:1;fill-rule:nonzero;stroke:none;stroke-width:4.78504801;stroke-linecap:butt;stroke-linejoin:miter;stroke-miterlimit:4;stroke-dasharray:none;stroke-dashoffset:0;stroke-opacity:1;marker:none;marker-start:none;marker-mid:none;marker-end:none"
           d="m -1088.4451,-437.30866 c 12.7351,-2e-5 23.028,10.29297 23.028,23.02804 0,12.73507 -10.2929,23.02805 -23.028,23.02805 -12.7351,0 -16.9978,-10.29298 -16.9978,-23.02805 0,-12.73507 4.2627,-23.02804 16.9978,-23.02804 z"
           id="path1372" />
      </g>
      <g
         id="g2241"
         transform="rotate(-15,-1209.0197,-414.28065)">
        <path
           sodipodi:nodetypes="sssss"
           inkscape:connector-curvature="0"
           style="color:#000000;display:inline;overflow:visible;visibility:visible;opacity:1;fill:#ffffff;fill-opacity:1;fill-rule:nonzero;stroke:none;stroke-width:8.39791107;stroke-linecap:butt;stroke-linejoin:miter;stroke-miterlimit:4;stroke-dasharray:none;stroke-dashoffset:0;stroke-opacity:1;marker:none;marker-start:none;marker-mid:none;marker-end:none"
           d="m -1214.3113,-454.69557 c 22.3504,-2e-5 40.4149,18.0645 40.4149,40.41495 0,22.35045 -18.0645,40.41495 -40.4149,40.41495 -22.3505,1e-5 -29.8317,-18.0645 -29.8317,-40.41495 0,-22.35045 7.4812,-40.41495 29.8317,-40.41495 z"
           id="path1370" />
        <path
           id="path1374"
           d="m -1200.6867,-437.30866 c 12.7351,-2e-5 23.028,10.29297 23.028,23.02804 0,12.73507 -10.2929,23.02805 -23.028,23.02805 -12.7351,0 -16.9978,-10.29298 -16.9978,-23.02805 0,-12.73507 4.2627,-23.02804 16.9978,-23.02804 z"
           style="color:#000000;display:inline;overflow:visible;visibility:visible;opacity:1;fill:#3776aa;fill-opacity:1;fill-rule:nonzero;stroke:none;stroke-width:4.78504801;stroke-linecap:butt;stroke-linejoin:miter;stroke-miterlimit:4;stroke-dasharray:none;stroke-dashoffset:0;stroke-opacity:1;marker:none;marker-start:none;marker-mid:none;marker-end:none"
           inkscape:connector-curvature="0"
           sodipodi:nodetypes="sssss" />
      </g>
      <path
         style="color:#000000;display:inline;overflow:visible;visibility:visible;opacity:1;fill:url(#linearGradient9521);fill-opacity:1;fill-rule:nonzero;stroke:#ffffff;stroke-width:56.6929141;stroke-linecap:butt;stroke-linejoin:miter;stroke-miterlimit:4;stroke-dasharray:none;stroke-dashoffset:0;stroke-opacity:1;marker:none;marker-start:none;marker-mid:none;marker-end:none"
         d="m 1059.2266,2307.7559 c -1.6044,15.6126 -2.8774,31.597 -3.7891,47.9863 0,897.7466 1630.7908,865.9101 1630.7908,865.9101 h 236.4766 c 114.1381,-923.2191 -916.3002,-818.9237 -1580.3515,-866.4765 -100.4939,-10.1739 -194.8179,-26.2222 -283.1269,-47.4199 z"
         id="path8615"
         inkscape:connector-curvature="0"
         sodipodi:nodetypes="ccccccc"
         transform="matrix(0.26458333,0,0,0.26458333,-1495.0861,-603.63437)" />
    </g>
  </g>
</svg>
